<svg id="Layer_1" enable-background="new 0 0 256 256" height="512" viewBox="0 0 256 256" width="512" xmlns="http://www.w3.org/2000/svg"><g><g><path d="m81.962 70.179h92.244v99.31h-92.244z" fill="#fcc24c"/></g><g><path d="m166.78 70.179h7.426v99.31h-7.426z" fill="#dea42e"/></g><g><path d="m81.962 70.179h7.426v99.31h-7.426z" fill="#fce06a"/></g><g><path d="m174.206 171.489h-92.244c-1.104 0-2-.896-2-2v-99.309c0-1.104.896-2 2-2h92.244c1.104 0 2 .896 2 2v99.31c0 1.104-.896 1.999-2 1.999zm-90.244-4h88.244v-95.309h-88.244z" fill="#690589"/></g><g><path d="m93.285 144.685c-13.051-.017-23.706 10.549-23.723 23.6v40.026h116.875v-39.831c.017-13.051-10.549-23.768-23.6-23.784h-16.096v-35.012h-37.314v35.012z" fill="#526faa"/></g><g><g><path d="m162.837 144.696h-8.289c13.051.017 23.617 10.723 23.6 23.774v39.842h8.29v-39.832c.016-13.051-10.55-23.768-23.601-23.784z" fill="#34518c"/></g></g><g><g><path d="m93.285 144.685 8.29.01c-13.051-.017-23.706 10.549-23.723 23.6v40.015h-8.289v-40.026c.016-13.05 10.671-23.616 23.722-23.599z" fill="#708dc8"/></g></g><g><path d="m128.084 173.442c-10.304 0-18.657-8.353-18.657-18.657v-45.101h37.314v45.101c0 10.304-8.353 18.657-18.657 18.657z" fill="#ff9f70"/></g><g><path d="m128.084 175.441c-11.39 0-20.657-9.267-20.657-20.656v-45.102c0-1.104.896-2 2-2h37.314c1.105 0 2 .896 2 2v45.102c0 11.39-9.266 20.656-20.657 20.656zm-16.657-63.757v43.102c0 9.184 7.472 16.656 16.657 16.656s16.657-7.472 16.657-16.656v-43.102z" fill="#690589"/></g><g><path d="m186.437 210.311h-116.875c-1.105 0-2-.895-2-2v-40.026c.009-6.847 2.695-13.28 7.563-18.119 4.855-4.824 11.292-7.48 18.127-7.48h.035l14.14.009v-33.011c0-1.104.896-2 2-2h37.314c1.105 0 2 .896 2 2v33.012h14.097c6.844.009 13.278 2.707 18.121 7.597 4.831 4.879 7.487 11.339 7.478 18.19v39.829c0 1.104-.895 1.999-2 1.999zm-114.875-4h112.875v-37.831c.008-5.791-2.237-11.249-6.32-15.373-4.087-4.127-9.515-6.403-15.282-6.411h-16.094c-1.104 0-2-.895-2-2v-33.012h-33.314v33.012c0 .53-.211 1.039-.586 1.415-.375.374-.883.585-1.414.585h-.001l-16.143-.01c-.009 0-.021 0-.032 0-5.772 0-11.207 2.243-15.307 6.317-4.109 4.084-6.376 9.512-6.383 15.285v38.023z" fill="#690589"/></g><g><path d="m128.034 140.575c-20.427 0-36.986-16.774-36.986-37.466v-25.938c0-20.692 16.559-37.466 36.986-37.466 20.427 0 36.986 16.774 36.986 37.466v25.938c0 20.692-16.559 37.466-36.986 37.466z" fill="#ff9f70"/></g><g><path d="m128.034 39.705c-1.422 0-2.823.089-4.203.248 18.446 2.115 32.783 17.967 32.783 37.218v25.938c0 19.252-14.336 35.103-32.783 37.218 1.38.158 2.781.248 4.203.248 20.427 0 36.986-16.774 36.986-37.466v-25.938c0-20.692-16.559-37.466-36.986-37.466z" fill="#e18152"/></g><g><path d="m128.034 39.705c1.422 0 2.823.089 4.203.248-18.447 2.115-32.783 17.967-32.783 37.218v25.938c0 19.252 14.336 35.103 32.783 37.218-1.38.158-2.781.248-4.203.248-20.427 0-36.986-16.774-36.986-37.466v-25.938c.001-20.692 16.56-37.466 36.986-37.466z" fill="#ffbd8e"/></g><g><path d="m128.034 142.575c-21.497 0-38.985-17.704-38.985-39.466v-25.938c0-21.762 17.489-39.466 38.985-39.466 21.497 0 38.985 17.704 38.985 39.466v25.938c0 21.762-17.488 39.466-38.985 39.466zm0-100.87c-19.291 0-34.985 15.91-34.985 35.466v25.938c0 19.556 15.694 35.466 34.985 35.466s34.985-15.91 34.985-35.466v-25.938c0-19.556-15.694-35.466-34.985-35.466z" fill="#690589"/></g><g><path d="m109.053 91.688h-18.004v-21.509h39.513c0 11.879-9.63 21.509-21.509 21.509z" fill="#fcc24c"/></g><g><path d="m109.053 93.688h-18.004c-1.104 0-2-.896-2-2v-21.508c0-1.104.896-2 2-2h39.513c1.105 0 2 .896 2 2-.001 12.963-10.546 23.508-23.509 23.508zm-16.004-4h16.004c10.082 0 18.403-7.688 19.407-17.509h-35.411z" fill="#690589"/></g><g><path d="m187.727 77.744h-119.385c-4.178 0-7.564-3.387-7.564-7.564 0-4.178 3.387-7.564 7.564-7.564h119.385c4.178 0 7.564 3.387 7.564 7.564 0 4.177-3.386 7.564-7.564 7.564z" fill="#690589"/></g><g><path d="m187.727 79.743h-119.385c-5.274 0-9.564-4.29-9.564-9.563s4.291-9.565 9.564-9.565h119.385c5.273 0 9.564 4.291 9.564 9.565s-4.291 9.563-9.564 9.563zm-119.385-15.128c-3.068 0-5.564 2.496-5.564 5.565 0 3.067 2.496 5.563 5.564 5.563h119.385c3.068 0 5.564-2.496 5.564-5.563 0-3.068-2.496-5.565-5.564-5.565z" fill="#690589"/></g><g><path d="m168.312 62.615h-80.555l12.096-58.615 28.181 5.483 28.182-5.483z" fill="#690589"/></g><g><path d="m87.757 62.615h80.555l-3.567-17.284h-73.421z" fill="#f4efed"/></g><g><path d="m158.08 45.331 3.567 17.284h6.665l-3.567-17.284z" fill="#d6d1cf"/></g><g><path d="m97.989 45.331-3.567 17.284h-6.665l3.566-17.284z" fill="#fff"/></g><g><path d="m168.312 64.615h-80.556c-.602 0-1.171-.27-1.551-.736-.379-.467-.529-1.079-.408-1.668l12.097-58.615c.221-1.072 1.262-1.773 2.34-1.559l27.799 5.409 27.8-5.409c1.074-.212 2.119.485 2.341 1.559l12.097 58.615c.121.589-.028 1.201-.408 1.668-.38.466-.949.736-1.551.736zm-78.101-4h75.646l-11.2-54.274-26.241 5.105c-.252.049-.512.049-.764 0l-26.24-5.105z" fill="#690589"/></g><g><path d="m168.312 64.615h-80.556c-.602 0-1.171-.27-1.551-.736-.379-.467-.529-1.079-.408-1.668l3.567-17.284c.191-.929 1.01-1.596 1.959-1.596h73.421c.949 0 1.767.667 1.959 1.596l3.567 17.284c.121.589-.028 1.201-.408 1.668-.379.466-.948.736-1.55.736zm-78.101-4h75.646l-2.741-13.284h-70.163z" fill="#690589"/></g><g><path d="m199.785 252h-143.57c-2.757 0-4.992-2.235-4.992-4.991v-83.02c0-2.757 2.235-4.992 4.992-4.992h143.57c2.757 0 4.992 2.235 4.992 4.992v83.02c0 2.756-2.235 4.991-4.992 4.991z" fill="#f4efed"/></g><g><path d="m199.785 158.997h-7.986c2.757 0 4.992 2.234 4.992 4.992v83.02c0 2.757-2.235 4.992-4.992 4.992h7.986c2.757 0 4.992-2.235 4.992-4.992v-83.02c0-2.757-2.235-4.992-4.992-4.992z" fill="#d6d1cf"/></g><g><path d="m56.215 252h7.986c-2.757 0-4.992-2.234-4.992-4.992v-83.02c0-2.757 2.235-4.992 4.992-4.992h-7.986c-2.757 0-4.992 2.235-4.992 4.992v83.02c0 2.758 2.235 4.992 4.992 4.992z" fill="#fff"/></g><g><path d="m199.785 254h-143.57c-3.855 0-6.992-3.137-6.992-6.991v-83.02c0-3.855 3.136-6.992 6.992-6.992h143.57c3.854 0 6.991 3.137 6.991 6.992v83.02c0 3.854-3.136 6.991-6.991 6.991zm-143.57-93.003c-1.649 0-2.992 1.343-2.992 2.992v83.02c0 1.649 1.342 2.991 2.992 2.991h143.57c1.649 0 2.991-1.342 2.991-2.991v-83.02c0-1.65-1.342-2.992-2.991-2.992z" fill="#690589"/></g><g><path d="m59.209 189.87c-1.104 0-2-.896-2-2v-12c0-1.105.896-2 2-2 1.105 0 2 .895 2 2v12c0 1.105-.895 2-2 2z" fill="#690589"/></g><g><circle cx="128.084" cy="205.818" fill="#fcc24c" r="10.381"/></g><g><path d="m128.084 218.198c-6.827 0-12.381-5.554-12.381-12.381s5.554-12.381 12.381-12.381 12.381 5.554 12.381 12.381c0 6.828-5.554 12.381-12.381 12.381zm0-20.762c-4.621 0-8.381 3.76-8.381 8.381s3.76 8.381 8.381 8.381 8.381-3.76 8.381-8.381-3.76-8.381-8.381-8.381z" fill="#690589"/></g></g></svg>